PathFileType	4	(X/Y/Z)	s02c0101.trc
DataRate	CameraRate	NumFrames	NumMarkers	Units	OrigDataRate	OrigDataStartFrame	OrigNumFrames
200	200	6	51	mm	200	1250	2000
Frame#	Time	racr			lacr			c7			jug			rlel			rdr			llel			ldr			s2			lic			ric			lasi			rasi			rpsi			lpsi			rgt			lgt			rth1			rth2			rth3			rth4			rlfc			rmfc			rsh1			rsh2			rsh3			rsh4			rlmal			rmmal			rtoe			rmt5			rmt1			lth1			lth2			lth4			lth3			llfc			lmfc			lsh1			lsh2			lsh3			lsh4			llmal			lmmal			lcal			ltoe			lmt1			lmt5			SBIKE			LBIKE			RBIKE			
		X1	Y1	Z1	X2	Y2	Z2	X3	Y3	Z3	X4	Y4	Z4	X5	Y5	Z5	X6	Y6	Z6	X7	Y7	Z7	X8	Y8	Z8	X9	Y9	Z9	X10	Y10	Z10	X11	Y11	Z11	X12	Y12	Z12	X13	Y13	Z13	X14	Y14	Z14	X15	Y15	Z15	X16	Y16	Z16	X17	Y17	Z17	X18	Y18	Z18	X19	Y19	Z19	X20	Y20	Z20	X21	Y21	Z21	X22	Y22	Z22	X23	Y23	Z23	X24	Y24	Z24	X25	Y25	Z25	X26	Y26	Z26	X27	Y27	Z27	X28	Y28	Z28	X29	Y29	Z29	X30	Y30	Z30	X31	Y31	Z31	X32	Y32	Z32	X33	Y33	Z33	X34	Y34	Z34	X35	Y35	Z35	X36	Y36	Z36	X37	Y37	Z37	X38	Y38	Z38	X39	Y39	Z39	X40	Y40	Z40	X41	Y41	Z41	X42	Y42	Z42	X43	Y43	Z43	X44	Y44	Z44	X45	Y45	Z45	X46	Y46	Z46	X47	Y47	Z47	X48	Y48	Z48	X49	Y49	Z49	X50	Y50	Z50	X51	Y51	Z51	
1250	6.2500	528.968217	1248.987933	-171.211611	495.441761	1254.786919	-522.998407	501.234432	1314.362509	-347.779302	454.607268	1181.927380	-346.542540	570.665782	996.346941	-73.371649	723.536662	846.907829	-129.235683	482.741158	971.982174	-579.809637	680.951896	856.817618	-517.398727	-1.173536	1098.574331	-306.845366	118.792091	1120.552890	-457.883763	135.855721	1109.863898	-173.869708	167.910939	1094.546996	-438.489267	183.885829	1082.534405	-200.454738	21.422211	1144.577799	-258.939274	14.882080	1144.573860	-344.247397	113.874996	1013.598800	-138.034406	88.073226	1029.297973	-490.241998	204.038989	963.860769	-140.870389	282.733016	924.887742	-147.536975	335.827600	861.147702	-125.266556	301.380153	945.070409	-173.013135	408.818466	739.773744	-156.152063	389.576630	720.729752	-263.878430	350.750299	643.097394	-138.379035	303.556238	567.316938	-156.064516	231.936694	521.802491	-147.616947	314.075541	561.179173	-193.363377	141.200451	446.483355	-149.438999	161.767523	455.940498	-230.242751	231.720343	238.097590	-189.506975	151.884490	313.698192	-133.189151	177.791098	299.799021	-240.966774	215.717967	965.553310	-508.260061	297.649551	936.801400	-506.253741	316.710056	964.678088	-490.440417	354.714964	868.571599	-507.762875	435.670584	804.255608	-486.192575	449.146378	774.732834	-384.672027	425.936173	698.977659	-506.230529	428.877198	613.456923	-491.232178	386.189508	533.887302	-491.975557	448.935248	612.593348	-455.662840	344.636099	434.161940	-480.323255	363.761649	432.594967	-402.786521	278.723902	383.118034	-442.638944	566.362063	356.368161	-446.274593	483.469375	363.801092	-403.113271	459.188759	339.787066	-509.036027	-165.176899	858.296762	-315.140269	32.728125	82.495827	-515.210318	32.877519	82.285414	-115.071782	
1251	6.2550	527.602824	1249.245956	-170.904663	495.904491	1253.703576	-522.863077	500.436547	1314.371739	-347.867648	453.664823	1181.640830	-346.155789	570.576463	996.262374	-73.941837	723.427462	847.014623	-129.336375	483.726919	971.339482	-581.628723	680.952803	856.157925	-517.705339	-0.996796	1096.719164	-307.755891	119.335833	1118.791859	-459.152347	135.748906	1108.798415	-174.778823	168.713341	1092.819753	-439.843384	184.013700	1081.933391	-201.528913	21.175408	1141.862225	-260.447602	14.841549	1142.434299	-345.252315	115.082891	1012.738697	-138.460166	88.484050	1026.629235	-490.788099	205.767822	964.838334	-141.465532	285.411008	927.900756	-148.560014	340.359064	865.849465	-126.171064	303.904901	949.216985	-173.517418	415.028623	745.417660	-157.005548	395.591410	726.385385	-264.732013	356.328652	649.675398	-139.215173	307.802445	574.808201	-156.795376	235.491920	530.188383	-148.006736	318.066067	568.458496	-194.106091	143.356394	457.026702	-149.724370	164.367964	465.978728	-230.649632	230.594892	247.092452	-189.551546	152.010422	324.050330	-133.439833	177.704383	309.673401	-241.058299	215.386245	960.947187	-509.151483	296.882155	930.806547	-507.152956	316.446197	958.550630	-491.779088	352.820990	861.707515	-508.461056	433.251930	796.636506	-486.794161	448.537922	766.931435	-384.804235	424.403015	691.489747	-506.894254	428.604793	606.163115	-492.033638	386.918498	525.819040	-492.380726	448.670849	605.395645	-456.533331	346.761453	424.930540	-480.903483	366.027431	422.771672	-403.162577	280.113169	375.166065	-443.594603	568.078269	343.823610	-445.884507	485.023727	352.676052	-403.085829	460.645328	329.020416	-509.001620	-165.175008	858.301842	-315.089234	32.720146	82.439369	-515.234972	32.891296	82.273175	-115.088382	
1252	6.2600	526.223639	1249.456879	-170.742618	496.451016	1252.623588	-522.850960	499.741394	1314.365620	-347.968122	452.835447	1181.640103	-345.810757	570.321354	996.335843	-74.296795	723.335115	847.253690	-129.476808	484.707619	970.715650	-583.513460	680.966996	855.662813	-518.147464	-0.739421	1094.965401	-308.802538	119.941792	1117.018769	-460.417571	135.638511	1107.751066	-175.646059	169.594404	1091.194317	-441.279282	183.426580	1081.318288	-203.347881	21.070462	1139.580066	-261.291337	14.859820	1140.329374	-346.409168	116.506806	1012.310592	-138.477077	89.108154	1024.078735	-491.373430	207.355117	966.272713	-142.040565	287.892472	931.356789	-149.440177	344.580206	870.938200	-126.967843	306.352335	953.097640	-174.159735	421.164397	751.657986	-157.772081	401.741404	732.460396	-265.560317	361.703453	656.504466	-140.039655	311.970137	582.423912	-157.559536	239.009312	539.399792	-148.279586	322.084303	575.950334	-194.784309	145.737820	467.563255	-150.143451	167.197742	476.165125	-231.109420	230.167374	256.402962	-189.636410	152.637291	334.553964	-133.640419	178.099846	319.832412	-241.212110	215.271891	956.475426	-509.965981	296.228620	924.882603	-507.996557	316.369719	952.370722	-492.899266	350.940358	854.870340	-509.102763	430.609483	789.033315	-487.422791	446.416441	759.241676	-385.575074	422.685545	683.899597	-507.542117	427.557160	598.610648	-492.374960	387.498911	517.644949	-492.998165	448.249504	597.986784	-457.080802	348.460127	415.796269	-481.521633	367.684423	413.663027	-403.773757	281.915860	367.335301	-443.904029	569.183370	331.557287	-446.277524	486.004052	341.501986	-402.732353	461.476358	318.123795	-508.851817	-165.168191	858.413608	-315.153305	32.689520	82.327011	-515.256499	32.893651	82.254566	-115.114223	
1253	6.2650	524.866605	1249.766677	-170.449622	496.984068	1251.734763	-522.887967	499.148720	1314.406278	-348.032656	451.906901	1181.686402	-345.510907	569.972217	996.552730	-74.497843	723.285776	847.488112	-129.626324	485.655825	970.177498	-585.424475	680.908859	855.144265	-518.761427	-0.555461	1093.482739	-310.277832	120.677688	1115.379460	-461.765837	135.543860	1107.047684	-176.156129	170.599269	1089.624659	-442.716465	183.557263	1081.131428	-204.409738	20.753734	1137.523879	-262.164981	14.936169	1138.368987	-348.040658	117.687843	1012.114871	-138.622176	89.976293	1021.699829	-491.980147	208.797370	968.048083	-142.666498	290.197560	935.190733	-150.126182	348.451593	876.256608	-127.748374	307.821791	957.312309	-175.101554	426.891017	758.405032	-158.832999	407.769755	738.802047	-266.555586	367.179264	663.464338	-140.789547	317.354024	590.509036	-157.406399	241.728279	548.912411	-149.175382	326.096892	583.605271	-195.510093	148.337941	478.162838	-150.577444	169.926257	486.506983	-231.605520	230.463897	266.062304	-189.819572	153.865241	345.117765	-133.990388	179.125270	329.984285	-241.447606	215.406593	952.197403	-510.778699	295.768531	919.139337	-508.740012	316.415240	946.264216	-493.948633	349.180547	847.956465	-509.684403	427.998673	781.344464	-487.833837	447.689547	753.490115	-384.645060	420.696514	676.087028	-508.133505	426.750162	590.973290	-493.075747	387.729619	509.422460	-493.631576	447.144432	590.633453	-457.556264	349.618136	406.847051	-482.046194	369.375616	405.196477	-405.183607	282.915875	359.864319	-444.568668	569.385122	318.164079	-445.890660	486.414032	330.282780	-402.846938	461.681246	307.282303	-508.901092	-165.228587	858.279905	-315.281186	32.659151	82.233773	-515.283053	32.919050	82.212574	-115.139804	
1254	6.2700	523.639096	1250.148516	-170.268795	497.588381	1250.900975	-522.746830	498.632321	1314.536659	-348.096823	450.944966	1181.759429	-345.244642	569.570297	996.953465	-74.533565	723.310321	847.741243	-129.845255	486.630274	969.729479	-587.280309	680.875118	854.675072	-519.271971	-0.240250	1092.187959	-311.783846	121.458046	1113.938200	-463.172786	135.237755	1106.605119	-177.557957	171.700902	1088.266018	-444.175646	183.663597	1081.216472	-205.398880	20.478756	1135.582586	-263.363346	15.051464	1136.584800	-349.451912	118.809155	1012.204413	-138.506896	91.048165	1019.399622	-492.665602	210.076612	970.216096	-143.283669	292.341424	939.394782	-150.698928	352.035556	881.925274	-128.294268	309.584265	961.808998	-175.251096	432.550373	765.754115	-159.723617	412.065045	743.616846	-267.903082	371.905263	671.111977	-141.774114	321.385382	598.665456	-158.195330	245.223520	558.285502	-150.022086	330.140121	591.979088	-195.792019	151.046414	488.673946	-151.024353	171.682316	497.743764	-231.630729	231.691003	276.089516	-189.948040	155.657080	355.656523	-134.232106	180.772512	340.235116	-241.725414	215.729882	947.987531	-511.562139	295.374462	913.288617	-509.422145	316.578545	940.157219	-494.818042	347.398616	841.140934	-510.157096	424.842566	773.514959	-488.240660	444.396463	745.253571	-385.641562	418.301247	667.978057	-508.710541	425.473416	583.040364	-493.633723	387.434053	501.037211	-494.401655	445.570698	582.945958	-457.916349	350.400978	398.106273	-483.181097	368.798200	395.667798	-405.153909	283.334528	352.608900	-445.382750	569.076181	305.223537	-445.573711	486.178978	319.337555	-403.040159	461.322394	296.494815	-508.951908	-165.226019	858.220912	-315.564390	32.659461	82.170476	-515.303948	32.747734	82.443945	-115.113819	
1255	6.2750	522.485804	1250.679258	-169.877985	498.277927	1250.245685	-522.683437	498.267803	1314.722290	-348.003553	450.150158	1181.865769	-344.898131	569.271918	997.402317	-74.467998	723.336384	847.980478	-130.012205	487.564841	969.495844	-589.140484	680.893117	854.226470	-519.738496	0.138711	1091.061735	-313.325611	122.394795	1112.596312	-464.611646	134.906280	1106.567737	-178.529295	172.910138	1086.852305	-445.538968	183.826539	1081.763665	-206.044900	20.220574	1134.199064	-264.229278	15.482918	1134.970084	-350.776093	119.855818	1012.681843	-138.939781	92.333751	1017.252537	-493.393968	211.241931	972.772690	-143.847426	294.410383	943.980687	-150.982118	355.305501	887.865809	-128.854057	310.386111	966.272283	-176.296914	438.057996	773.345523	-160.595868	421.782222	755.063265	-269.049905	376.785112	679.185075	-142.760935	325.329255	607.080329	-158.955482	248.848500	567.562875	-150.682313	334.279018	599.691776	-196.803112	153.942154	499.221366	-151.516875	172.829443	508.000511	-232.187855	233.561156	286.122243	-190.241604	157.972129	366.203720	-134.553769	182.896930	350.610788	-241.954951	216.334425	944.145026	-513.149492	295.082681	907.582164	-509.984036	316.858509	933.981962	-495.575800	345.516965	834.319109	-510.516021	421.315751	765.416062	-488.973069	440.927308	736.834794	-386.561925	415.557457	659.893239	-509.265370	423.681713	575.032848	-494.200701	386.575420	492.620388	-495.215281	443.437778	575.046725	-458.318372	350.602214	389.403952	-483.942173	368.710858	387.004543	-406.156372	283.259018	345.462342	-446.433999	568.001037	292.480313	-445.167651	485.267664	308.427339	-403.175327	460.409164	285.823578	-509.021999	-165.141579	858.250186	-315.452709	32.641671	82.145201	-515.321297	32.748997	82.448697	-115.146827	
